<svg xmlns="http://www.w3.org/2000/svg" xmlns:xlink="http://www.w3.org/1999/xlink" x="0" y="0" version="1.1" viewBox="0 0 231.1 228.1" xml:space="preserve" style="enable-background:new 0 0 231.1 228.1"><style type="text/css">.st0{fill:#98e35d}.st1{fill:#16b157}</style><metadata><sfw xmlns="http://ns.adobe.com/SaveForWeb/1.0/"><slices/><sliceSourceBounds width="231.1" height="228.1" x="168" y="-781.1" bottomLeftOrigin="true"/></sfw></metadata><g id="svg446"><g><path d="M227.6,1.3c-0.8-0.3-86-12-170.3,42.3C4.9,77.3-2,126.6,0.4,159.5C122.9,145.8,224.8,5.1,227.6,1.3 M8.7,195.9c10.5,18.5,90.1,60.5,160.6,2.6S233.9,35.1,227.6,1.3C225.3,6.2,148.4,174.7,8.7,195.9" class="st0"/><path d="M227.6,1.3c-0.8-0.3-86-12-170.3,42.3C4.9,77.3-2,126.6,0.4,159.5C122.9,145.8,224.8,5.1,227.6,1.3" class="st1"/></g></g></svg>