<svg xmlns="http://www.w3.org/2000/svg" xmlns:xlink="http://www.w3.org/1999/xlink" width="526pt" height="638pt" viewBox="0 0 526.26 638"><g id="graph0" class="graph" transform="scale(1 1) rotate(0) translate(4 634)"><title>G</title><polygon fill="#fff" stroke="transparent" points="-4 4 -4 -634 522.262 -634 522.262 4 -4 4"/><g id="clust1" class="cluster"><title>cluster_logger</title><polygon fill="#d3d3d3" stroke="#d3d3d3" points="46 -233.8 46 -622 278 -622 278 -233.8 46 -233.8"/><text x="162" y="-605.4" fill="#000" font-family="Times,serif" font-size="14" text-anchor="middle">bitcoin-logger</text></g><g id="clust2" class="cluster"><title>cluster_bitcoind</title><polygon fill="#d3d3d3" stroke="#d3d3d3" points="286 -433.6 286 -510.4 430 -510.4 430 -433.6 286 -433.6"/><text x="358" y="-493.8" fill="#000" font-family="Times,serif" font-size="14" text-anchor="middle">bitcoind</text></g><g id="clust3" class="cluster"><title>cluster_csv</title><polygon fill="#d3d3d3" stroke="#d3d3d3" points="8 -65 8 -141.8 296 -141.8 296 -65 8 -65"/><text x="152" y="-125.2" fill="#000" font-family="Times,serif" font-size="14" text-anchor="middle">bitcoin-csv</text></g><g id="node1" class="node"><title>store</title><ellipse cx="213" cy="-370.8" fill="#fff" stroke="#fff" rx="29.613" ry="18"/><text x="213" y="-366.6" fill="#000" font-family="Times,serif" font-size="14" text-anchor="middle">store</text></g><g id="node3" class="node"><title>flush</title><ellipse cx="213" cy="-259.8" fill="#fff" stroke="#fff" rx="30.196" ry="18"/><text x="213" y="-255.6" fill="#000" font-family="Times,serif" font-size="14" text-anchor="middle">flush</text></g><g id="edge3" class="edge"><title>store-&gt;flush</title><path fill="none" stroke="#000" d="M213,-352.4706C213,-335.0373 213,-308.5482 213,-288.3489"/><polygon fill="#000" stroke="#000" points="216.5 -288.157 213 -278.157 209.5 -288.157 216.5 -288.157"/></g><g id="node6" class="node"><title>rpc</title><ellipse cx="321" cy="-459.6" fill="#fff" stroke="#fff" rx="27" ry="18"/><text x="321" y="-455.4" fill="#000" font-family="Times,serif" font-size="14" text-anchor="middle">rpc</text></g><g id="edge5" class="edge"><title>store-&gt;rpc</title><path fill="none" stroke="#000" d="M230.6678,-385.3269C248.3931,-399.901 275.8597,-422.4847 295.8541,-438.9245"/><polygon fill="#000" stroke="#000" points="293.701 -441.685 303.648 -445.333 298.147 -436.278 293.701 -441.685"/><text x="311.19" y="-411" fill="#000" font-family="Times,serif" font-size="14" text-anchor="middle">missing data</text></g><g id="node2" class="node"><title>zmq_reader</title><ellipse cx="213" cy="-571.2" fill="#fff" stroke="#fff" rx="56.721" ry="18"/><text x="213" y="-567" fill="#000" font-family="Times,serif" font-size="14" text-anchor="middle">zmq_reader</text></g><g id="edge1" class="edge"><title>zmq_reader-&gt;store</title><path fill="none" stroke="#000" d="M213,-553.0624C213,-518.0524 213,-440.9338 213,-399.1098"/><polygon fill="#000" stroke="#000" points="216.5 -399.041 213 -389.041 209.5 -399.041 216.5 -399.041"/></g><g id="node9" class="node"><title>raw_logs</title><polygon fill="none" stroke="#000" points="246.818 -204.8 179.182 -204.8 179.182 -168.8 246.818 -168.8 246.818 -204.8"/><text x="213" y="-182.6" fill="#000" font-family="Times,serif" font-size="14" text-anchor="middle">raw_logs</text></g><g id="edge7" class="edge"><title>flush-&gt;raw_logs</title><path fill="none" stroke="#000" d="M213,-241.7551C213,-233.6828 213,-223.9764 213,-214.9817"/><polygon fill="#000" stroke="#000" points="216.5 -214.89 213 -204.89 209.5 -214.89 216.5 -214.89"/></g><g id="node4" class="node"><title>rpc_call</title><ellipse cx="96" cy="-571.2" fill="#fff" stroke="#fff" rx="42.272" ry="18"/><text x="96" y="-567" fill="#000" font-family="Times,serif" font-size="14" text-anchor="middle">rpc_call</text></g><g id="edge2" class="edge"><title>rpc_call-&gt;store</title><path fill="none" stroke="#000" d="M106.383,-553.4158C127.1286,-517.8823 173.7774,-437.9813 197.9061,-396.6532"/><polygon fill="#000" stroke="#000" points="200.954 -398.375 202.973 -387.974 194.909 -394.845 200.954 -398.375"/></g><g id="edge6" class="edge"><title>rpc_call-&gt;rpc</title><path fill="none" stroke="#000" d="M128.3237,-559.6236C134.5117,-557.4551 140.9473,-555.2324 147,-553.2 195.2719,-536.9911 207.5791,-533.6629 256.1584,-518.4 267.6285,-514.7963 272.1326,-517.2692 282,-510.4 291.4048,-503.8529 299.5581,-494.3438 305.9432,-485.3189"/><polygon fill="#000" stroke="#000" points="308.898 -487.196 311.507 -476.927 303.064 -483.328 308.898 -487.196"/><text x="303.421" y="-522.6" fill="#000" font-family="Times,serif" font-size="14" text-anchor="middle">estimatesmartfee</text></g><g id="node5" class="node"><title>zmq</title><ellipse cx="394" cy="-459.6" fill="#fff" stroke="#fff" rx="27.829" ry="18"/><text x="394" y="-455.4" fill="#000" font-family="Times,serif" font-size="14" text-anchor="middle">zmq</text></g><g id="edge4" class="edge"><title>zmq-&gt;zmq_reader</title><path fill="none" stroke="#000" d="M389.3641,-477.6447C383.977,-494.9667 373.3851,-520.5921 355,-535.2 342.1425,-545.416 306.1216,-554.486 273.579,-560.9666"/><polygon fill="#000" stroke="#000" points="272.774 -557.557 263.621 -562.893 274.103 -564.43 272.774 -557.557"/><text x="443.631" y="-522.6" fill="#000" font-family="Times,serif" font-size="14" text-anchor="middle">rawtx, rawblock, sequence</text></g><g id="node7" class="node"><title>raw_logs_reader</title><ellipse cx="213" cy="-91" fill="#fff" stroke="#fff" rx="75.262" ry="18"/><text x="213" y="-86.8" fill="#000" font-family="Times,serif" font-size="14" text-anchor="middle">raw_logs_reader</text></g><g id="node8" class="node"><title>csv_writer</title><ellipse cx="68" cy="-91" fill="#fff" stroke="#fff" rx="51.582" ry="18"/><text x="68" y="-86.8" fill="#000" font-family="Times,serif" font-size="14" text-anchor="middle">csv_writer</text></g><g id="node10" class="node"><title>csv</title><polygon fill="none" stroke="#000" points="95 -36 41 -36 41 0 95 0 95 -36"/><text x="68" y="-13.8" fill="#000" font-family="Times,serif" font-size="14" text-anchor="middle">csv</text></g><g id="edge9" class="edge"><title>csv_writer-&gt;csv</title><path fill="none" stroke="#000" d="M68,-72.9551C68,-64.8828 68,-55.1764 68,-46.1817"/><polygon fill="#000" stroke="#000" points="71.5 -46.09 68 -36.09 64.5 -46.09 71.5 -46.09"/></g><g id="edge8" class="edge"><title>raw_logs-&gt;raw_logs_reader</title><path fill="none" stroke="#000" d="M213,-168.7808C213,-154.9527 213,-135.593 213,-119.6477"/><polygon fill="#000" stroke="#000" points="216.5 -119.264 213 -109.264 209.5 -119.264 216.5 -119.264"/></g></g></svg>